<?xml version="1.0" standalone="no"?>
<!DOCTYPE svg PUBLIC "-//W3C//DTD SVG 20010904//EN" "http://www.w3.org/TR/2001/REC-SVG-20010904/DTD/svg10.dtd">
<svg version="1.0" xmlns="http://www.w3.org/2000/svg" width="140.000000pt" height="140.000000pt" viewBox="0 0 1400.000000 1400.000000" preserveAspectRatio="xMidYMid meet">

  <g fill="#000000" stroke="none">
    <g fill="yellow">
    <path fill="#000000" d="M100 1350 l0 -50 -50 0 -50 0 0 -600 0 -600 50 0 50 0 0 -50 0 -50
                         600 0 600 0 0 50 0 50 50 0 50 0 0 600 0 600 -50 0 -50 0 0 50 0 50 -600 0
                         -600 0 0 -50z" />
    <path d="M100 1350 l0 -50 -50 0 -50 0 0 -600 0 -600 50 0 50 0 0 -50 0 -50
600 0 600 0 0 50 0 50 50 0 50 0 0 600 0 600 -50 0 -50 0 0 50 0 50 -600 0
-600 0 0 -50z m1100 -100 l0 -50 50 0 50 0 0 -500 0 -500 -50 0 -50 0 0 -50 0
-50 -500 0 -500 0 0 50 0 50 -50 0 -50 0 0 500 0 500 50 0 50 0 0 50 0 50 500
0 500 0 0 -50z" />

    <path d="M200 700 l0 -500 500 0 500 0 0 500 0 500 -500 0 -500 0 0 -500z
m900 0 l0 -400 -400 0 -400 0 0 400 0 400 400 0 400 0 0 -400z" />
    <path d="M400 700 l0 -300 300 0 300 0 0 300 0 300 -300 0 -300 0 0 -300z
m500 0 l0 -200 -200 0 -200 0 0 200 0 200 200 0 200 0 0 -200z" />
    <path d="M600 700 l0 -100 100 0 100 0 0 100 0 100 -100 0 -100 0 0 -100z" />
    </g>
  </g>
</svg>